<svg xmlns="http://www.w3.org/2000/svg" viewBox="0 0 1260.72 112.67"><defs><style>.cls-1{fill:#fff;}</style></defs><title>mannahouseAsset 2mdpi</title><g id="Layer_2" data-name="Layer 2"><g id="Layer_1-2" data-name="Layer 1"><path class="cls-1" d="M1260.72,56.33,1144.48,0V45.63h-965L150.67,9.86H0L28.83,45.63H25.44A11.92,11.92,0,0,0,13.53,57.55v.08A11.91,11.91,0,0,0,25.44,69.54h3.67L0,105.68H150.67l29.11-36.13h964.7v43.13Zm-105-41.53L1238,56.33l-82.3,41.54,44.34-41.54ZM140.05,15.88l24,29.75H134.43l-24-29.75ZM95,15.88l24,29.75H89.37l-24-29.75Zm-74.65,0H49.92l24,29.75H44.3Zm0,83.77L44.59,69.54H74.18L49.92,99.65Zm45.06,0L89.65,69.54h29.59L95,99.65Zm74.66,0H110.46l24.26-30.11h29.59Z"/></g></g></svg>