<svg id="Layer_1" data-name="Layer 1" xmlns="http://www.w3.org/2000/svg" viewBox="0 0 2564 555"><defs><style>.cls-1{fill:#fff;}</style></defs><title>dreamers svg</title><polygon class="cls-1" points="107.36 258.86 94.08 258.86 104.84 272.21 118.12 272.21 107.36 258.86"/><polygon class="cls-1" points="104.97 282.94 94.08 296.45 107.36 296.45 118.25 282.94 104.97 282.94"/><polygon class="cls-1" points="125.06 272.21 138.34 272.21 127.58 258.86 114.31 258.86 125.06 272.21"/><path class="cls-1" d="M277.5,0C124.24,0,0,124.24,0,277.5S124.24,555,277.5,555,555,430.76,555,277.5,430.76,0,277.5,0ZM437,302.29V282.94H401.94a125.84,125.84,0,0,1-125.7,120.39H194.62V282.94h-29l-13.06,16.21H85L98,282.94H96.38A5.36,5.36,0,0,1,91,277.59v0a5.35,5.35,0,0,1,5.35-5.35H97.9L85,256.15h67.62l12.93,16h29.11V151.67h81.62A125.85,125.85,0,0,1,402,272.21H437V251.73L489.16,277Z"/><polygon class="cls-1" points="145.29 272.21 158.56 272.21 147.81 258.86 134.53 258.86 145.29 272.21"/><polygon class="cls-1" points="125.19 282.94 114.31 296.45 127.58 296.45 138.47 282.94 125.19 282.94"/><polygon class="cls-1" points="478.98 277.01 442.04 258.37 461.94 277.01 442.04 295.65 478.98 277.01"/><polygon class="cls-1" points="134.53 296.45 147.81 296.45 158.69 282.94 145.42 282.94 134.53 296.45"/><path class="cls-1" d="M214.16,383.78h62.08A106.3,106.3,0,0,0,382.38,282.94H214.16Z"/><path class="cls-1" d="M351.38,202.35a105.58,105.58,0,0,0-75.14-31.13H214.16v101H382.39A105.55,105.55,0,0,0,351.38,202.35Z"/><path class="cls-1" d="M810.44,505.48a48.55,48.55,0,0,1-8.78,5.32,49.86,49.86,0,0,1-10.1,3.46,53.53,53.53,0,0,1-12,1.24,47.58,47.58,0,0,1-34.7-14.45,48.31,48.31,0,0,1-10.17-15.83,54.12,54.12,0,0,1,0-39.13,50,50,0,0,1,10.17-16,47.33,47.33,0,0,1,15.48-10.79A48.52,48.52,0,0,1,780,415.39a58.85,58.85,0,0,1,12,1.11,50.37,50.37,0,0,1,9.89,3.11,44.74,44.74,0,0,1,8.43,4.84,74.08,74.08,0,0,1,7.47,6.29l-7.47,8a61.43,61.43,0,0,0-13.34-9.54q-7.12-3.74-17.08-3.73A36.14,36.14,0,0,0,753.05,437a39.3,39.3,0,0,0-7.88,12.66,42.75,42.75,0,0,0-2.83,15.69,43.28,43.28,0,0,0,2.83,15.76,38.94,38.94,0,0,0,7.88,12.72A37.24,37.24,0,0,0,765,502.3a35.52,35.52,0,0,0,14.86,3.11A37.41,37.41,0,0,0,797,501.75a59.87,59.87,0,0,0,14.1-10.31l7.19,7.06A69.61,69.61,0,0,1,810.44,505.48Z"/><path class="cls-1" d="M945.05,470.29v43.55H934.12V417.05h10.93v43h55.86v-43h10.92v96.79h-10.92V470.29Z"/><path class="cls-1" d="M1215.09,472.5a54.92,54.92,0,0,1-2.9,18.67,36.55,36.55,0,0,1-8.23,13.41,34.07,34.07,0,0,1-12.72,8.09,51.67,51.67,0,0,1-32.91,0,34.42,34.42,0,0,1-12.72-8,36,36,0,0,1-8.23-13.21,52.33,52.33,0,0,1-2.9-18.11V417.05h10.92v55.59q0,15.76,7.82,24.2t21.77,8.43q13.41,0,21.3-8t7.88-23.92V417.05h10.92Z"/><path class="cls-1" d="M1404.39,513.84l-28.07-37.61h-27.66v37.61h-10.92V417.05h41.62a47.07,47.07,0,0,1,14.45,2.08,32.38,32.38,0,0,1,11,5.88,26.17,26.17,0,0,1,7,9.13,27.58,27.58,0,0,1,2.49,11.83,28.76,28.76,0,0,1-1.93,10.86,25,25,0,0,1-5.47,8.3,30.79,30.79,0,0,1-8.36,5.88,39,39,0,0,1-10.51,3.32l29.73,39.51Zm-7.49-81.63q-6.51-5.06-18.29-5.06h-29.95v39.4h29.81a34.44,34.44,0,0,0,10-1.38,24.52,24.52,0,0,0,7.9-4,18,18,0,0,0,5.2-6.31,18.8,18.8,0,0,0,1.87-8.47Q1403.42,437.28,1396.9,432.21Z"/><path class="cls-1" d="M1609.65,505.48a48.55,48.55,0,0,1-8.78,5.32,49.77,49.77,0,0,1-10.09,3.46,53.65,53.65,0,0,1-12,1.24A47.58,47.58,0,0,1,1544,501.05a48.29,48.29,0,0,1-10.16-15.83,54,54,0,0,1,0-39.13,50,50,0,0,1,10.16-16,47.27,47.27,0,0,1,15.49-10.79,48.44,48.44,0,0,1,19.63-3.94,58.78,58.78,0,0,1,12,1.11,50.16,50.16,0,0,1,9.89,3.11,44.74,44.74,0,0,1,8.43,4.84,74.08,74.08,0,0,1,7.47,6.29l-7.47,8a61,61,0,0,0-13.34-9.54q-7.12-3.74-17.08-3.73A36.1,36.1,0,0,0,1552.27,437a39.12,39.12,0,0,0-7.88,12.66,42.76,42.76,0,0,0-2.84,15.69,43.29,43.29,0,0,0,2.84,15.76,38.77,38.77,0,0,0,7.88,12.72,37.2,37.2,0,0,0,11.89,8.51,35.55,35.55,0,0,0,14.86,3.11,37.38,37.38,0,0,0,17.15-3.66,59.87,59.87,0,0,0,14.1-10.31l7.2,7.06A69.69,69.69,0,0,1,1609.65,505.48Z"/><path class="cls-1" d="M1744.26,470.29v43.55h-10.92V417.05h10.92v43h55.86v-43h10.93v96.79h-10.93V470.29Z"/><path class="cls-1" d="M731,299.17V70.42h76.25a114.38,114.38,0,0,1,0,228.75Zm76.25-28.59a85.79,85.79,0,0,0,0-171.57H759.59V270.58Z"/><path class="cls-1" d="M1090.92,218.44l50.45,80.73h-33.71L1060,222.92H998.4v76.25H969.81V70.42h95.31a76.27,76.27,0,0,1,25.8,148Zm-25.8-24.11a47.66,47.66,0,1,0,0-95.32H998.4v95.32Z"/><path class="cls-1" d="M1218,156.2h101.67v28.59H1218v85.79h130.26v28.59H1189.4V70.42h158.85V99H1218Z"/><path class="cls-1" d="M1625,299.17h-31.2l-25.51-58.33L1427.5,299.17h-31.2L1496.37,70.42H1525Zm-68.17-84.51-46.2-105.57-66.62,152.3Z"/><path class="cls-1" d="M1901.94,70.42V299.17h-28.6V113.85l-85.78,98-85.78-98V299.17h-28.59V70.42h28.59l85.78,98,85.78-98Z"/><path class="cls-1" d="M1978.67,156.2h101.67v28.59H1978.67v85.79h130.26v28.59H1950.08V70.42h158.85V99H1978.67Z"/><path class="cls-1" d="M2278.09,218.44l50.45,80.73h-33.71l-47.66-76.25h-61.6v76.25H2157V70.42h95.31a76.27,76.27,0,0,1,25.8,148Zm-25.8-24.11a47.66,47.66,0,1,0,0-95.32h-66.72v95.32Z"/><path class="cls-1" d="M2545.16,280.33a64,64,0,0,1-45.49,18.84H2412.3V270.58h87.37a35.75,35.75,0,0,0,0-71.49h-30.19a64.34,64.34,0,1,1,0-128.67h80.23V99h-80.23a35.75,35.75,0,0,0,0,71.49h30.18a64.34,64.34,0,0,1,45.49,109.83Z"/><path class="cls-1" d="M2368.74,74.68h-13.1V39.5h34.16V69.55q0,21.57-10,31.33t-29.54,11.3l-3.34-13.35Q2370.54,94.47,2368.74,74.68Z"/></svg>